<svg version="1.2" xmlns="http://www.w3.org/2000/svg" viewBox="0 0 1579 1583" width="1579" height="1583">
	<title>Orange_logo-svg</title>
	<style>
		.s0 { fill: #ff6600 } 
		.s1 { fill: #fed9bf } 
		.s2 { fill: #ffffff } 
	</style>
	<g id="surface1">
		<path id="Layer" fill-rule="evenodd" class="s0" d="m0 0h1577.1c0 527 0 1054.1 0 1581.1-525.7 0-1051.4 0-1577.1 0zm1365.5 1143.7q-0.1 5 0 10.1c7.5-0.1 15.1-0.1 22.6-0.1 0.1 21 0 42 0.1 63q6.1-0.1 12.3 0c0-21 0-42 0-63 7.6 0 15.2 0 22.7 0q0-5 0-10c-19.2 0-38.5 0-57.7 0zm72.1 0q-0.1 36.5 0 73 6.2 0 12.3 0c0.1-20-0.1-39.9 0.2-59.8 8.2 19.7 15.7 39.8 23.5 59.7q4 0 8 0c8-19.9 15.5-40.1 23.7-60 0.1 20 0 40.1 0.1 60.1q6.1-0.1 12.2 0c0.2-24.3 0.1-48.7 0.1-73q-9.4 0-18.7 0c-7 18.3-14.1 36.5-21.1 54.8-7.1-18.3-14.3-36.5-21.4-54.8q-9.5 0-18.9 0zm-1250.4 77.8c-30.7 1.2-61.6 15.1-79.9 40.4-15.7 21.2-22 48.2-21.8 74.3-0.5 24.5 4.4 49.8 17.5 70.9 10.7 17.2 27 30.7 45.7 38.3 22.5 9.1 47.8 10.8 71.6 5.9 22-4.6 42.9-16.1 57.2-33.6 13-15.6 20.5-35.1 23.5-54.9 3.3-23.1 2.5-47-4.3-69.4-6.4-20.9-19.4-40-37.3-52.6-20.9-14.8-47-20.7-72.2-19.3zm210.1 31.1q0-12.8 0-25.6c-18.4 0-36.8 0-55.1 0.1 0 73.5 0 147 0 220.5 19.7 0.1 39.4 0 59.1 0 0.1-48.8-0.1-97.6 0.1-146.3 2.4-7.2 9-12.4 15.5-15.8 15.1-7.2 32.1-7.8 48.5-7.9 0-18.2 0-36.5 0-54.7-25.8-2.4-51.5 10.4-68.1 29.7zm144.6-23.7c-20.1 6.4-38 19.4-50.1 36.7 13.1 7.7 26.2 15.1 39.4 22.5 11.2-13.9 27.7-23.4 45.6-24.9 12.8-1.1 28.2-0.4 37.3 10 6.5 7.4 4.6 17.8 4.9 26.8-30.1 3.6-60.5 8.5-88.5 20.5-15.8 6.8-31.2 16.7-40.6 31.6-10.4 16.8-11.5 38.2-5.7 56.8 4.8 15.3 16.1 28.4 30.7 34.9 16.8 7.8 35.9 7.4 53.8 4.6 17.8-3 34.8-10 49.9-19.9q2.5 9.6 5.1 19.1 25.8 0 51.7 0c-0.7-51-0.2-102-0.3-152.9 1-15-1.8-30.9-11.2-43-12.3-16.4-32.6-24.1-52.1-27.3-23.3-3.3-47.5-2.7-69.9 4.5zm287.6-4.7c-20.6 4.2-38.7 15.8-55.6 28-1.7-8.6-3.6-17.2-5.1-25.9q-24.2 3.3-48.3 6.7c-0.1 71.5 0 142.9 0 214.3 19.2 0 38.5 0 57.7 0q0-79 0-157.9c13.7-11.4 29.3-21.7 47.3-24 9-1 19.7-0.5 26.3 6.7 6.5 7.7 7.5 18.2 7.9 27.9 0 49.1 0 98.2 0 147.3 19.3 0 38.7 0 58.1 0q0-78.4 0-156.7c-0.3-10.5-1.7-21-5.3-30.9-4.7-13.3-14.5-24.7-27.3-30.6-17.3-7.8-37.2-8.4-55.7-4.9zm151 32c-17.7 24-23.9 54.7-23.4 84 0.3 26.8 6.2 54.8 23.2 76.2 13.5 17.3 34.4 28.1 56.1 30.3 15.8 1.5 32.7 0.9 46.9-7.2 9.8-5.5 16.7-14.7 22.5-24.1 0.5 9.3 0.2 18.6 0.3 27.8-0.4 12.3-2.2 25.7-10.7 35.2-7.7 8.7-19.8 11.7-31 11.7-11.8 0.2-24.5-0.2-34.7-6.8-5.1-3.3-7.7-9-9.2-14.7q-28.6 4.7-57.3 9.3c3.5 17.8 15.9 32.9 31.7 41.5 24.6 13.7 53.8 15.2 81.2 12.5 23.7-2.3 48.8-9.1 65.8-27 15.2-16 19.9-38.9 20.2-60.3q0-109.1 0-218.2c-16.3 0.1-32.7-0.3-49.1 0.2-1.3 8.1-2.9 16.2-4.3 24.3-5.1-10.5-15-17.8-25.6-22.1-13.9-5.8-29.3-7.1-44.2-6.2-23.3 1.7-44.8 14.9-58.4 33.6zm241.6-1.6c-16 19-23.1 43.9-24.8 68.2-1.8 26.7 0.7 54.4 12.9 78.6 9.4 18.8 25.6 34.2 45.2 42 25.1 10.1 53.3 10 79.5 4.5 25.7-5.7 49.8-21.1 62.9-44.3q-21.4-11.8-42.7-23.7c-6.3 9.1-14.1 17.7-24.1 22.7-11.3 5.8-24.5 6.5-36.9 4.7-11.9-1.7-23.3-8.3-29.8-18.6-8-12.6-10.2-28.1-10.3-42.9 48.6 0.1 97.2 0 145.9 0.1 1.6-19.5-0.2-39.2-5.8-57.9-6.1-20.3-18.6-39-36.6-50.4-22.1-14.3-49.6-17.4-75.3-14.4-22.9 2.8-45.3 13.3-60.1 31.4z"/>
		<path id="Layer" class="s0" d="m1267.4 1274.6c7.1-7.9 17.6-12.2 28-12.8 13.4-1 27.9 2.7 37 13.1 8.1 8.9 10.8 21.3 11.1 33.1-29.6 0-59.1 0-88.7 0 1-12 4.5-24.3 12.6-33.4z"/>
		<path id="Layer" class="s0" d="m1051.3 1264.3c13.6-2.5 28.4 1.8 38.1 11.9 11.3 11.6 15.9 28.1 16.9 43.9 0.4 11.6-0.1 23.3-1.9 34.8-2.1 12.1-6.1 24.4-14.9 33.4-7.9 8.1-19.5 11.7-30.6 11.5-10.4 0.3-21.3-3-28.5-10.8-9.7-10-12.9-24.2-14.5-37.6-1.2-13.6-1.6-27.4 0.2-41 1.7-11.9 5.4-24.1 13.3-33.4 5.6-6.6 13.4-11.2 21.9-12.7z"/>
		<path id="Layer" class="s0" d="m184.8 1271.3c14.1-2.1 29.9 0.2 40.9 9.9 10.4 8.9 15.4 22.4 17.7 35.6 2.4 14.8 2.3 30.1-0.6 44.8-2.6 12.9-8.4 26-19.1 34.1-12 9-28.1 10.5-42.4 7.6-11.6-2.4-22-10-27.9-20.3-8.6-14.9-10.5-32.7-10.2-49.6 0.6-15.3 3.3-31.1 11.9-44 6.8-9.9 17.8-16.6 29.7-18.1z"/>
		<path id="Layer" class="s0" d="m565.5 1347.4c16.4-6.8 34.2-9.8 51.8-12.1 0 17.2-0.1 34.4 0 51.6-14.7 13.2-33.5 23.6-53.7 23.3-6.8 0.1-13.5-2.8-18.1-7.7-8.8-9.9-10.1-25.6-3.3-36.9 5.1-8.8 14.2-14.2 23.3-18.2z"/>
		<path id="Layer" class="s1" d="m1577.1 0h1.4v1582.5h-1578.5v-1.4c525.7 0 1051.4 0 1577.1 0 0-527 0-1054.1 0-1581.1z"/>
		<path id="Layer" class="s2" d="m1365.5 1143.6c19.2 0.1 38.5 0 57.7 0.1q0 5 0 10c-7.5 0-15.1 0-22.7 0 0 21 0 42 0 62.9q-6.2 0-12.3 0.1c-0.1-21 0-42-0.1-63-7.5 0-15.1 0-22.6 0q-0.1-5 0-10.1z"/>
		<path id="Layer" class="s2" d="m1437.6 1143.7q9.4 0 18.9 0c7.1 18.2 14.3 36.5 21.4 54.7 7-18.2 14.1-36.4 21.1-54.7q9.3-0.1 18.7 0c0 24.3 0.1 48.6-0.1 73q-6.1-0.1-12.2-0.1c-0.1-20 0-40-0.1-60-8.2 19.9-15.7 40-23.7 60q-4 0-8 0c-7.8-19.9-15.3-40-23.5-59.7-0.3 19.9-0.1 39.8-0.2 59.7q-6.1 0-12.3 0-0.1-36.5 0-72.9z"/>
		<path id="Layer" fill-rule="evenodd" class="s2" d="m187.2 1221.5c25.2-1.4 51.3 4.5 72.2 19.2 17.9 12.6 30.9 31.7 37.3 52.7 6.8 22.4 7.6 46.3 4.3 69.4-3 19.8-10.5 39.3-23.5 54.8-14.3 17.5-35.2 29.1-57.2 33.6-23.8 4.9-49.1 3.3-71.6-5.9-18.7-7.5-35-21.1-45.7-38.3-13.1-21-18-46.3-17.5-70.9-0.2-26 6.1-53 21.8-74.2 18.3-25.3 49.2-39.2 79.9-40.4zm-2.4 49.8c-11.9 1.5-22.9 8.2-29.7 18.1-8.6 12.9-11.3 28.7-11.9 44-0.3 16.9 1.6 34.7 10.2 49.6 5.9 10.3 16.3 17.9 27.9 20.3 14.3 2.9 30.4 1.4 42.4-7.6 10.7-8.1 16.5-21.2 19.1-34.1 2.9-14.7 3-30 0.6-44.8-2.3-13.2-7.3-26.7-17.7-35.6-11-9.7-26.8-12-40.9-9.9z"/>
		<path id="Layer" class="s2" d="m397.3 1252.6c16.6-19.4 42.3-32.1 68.1-29.7 0 18.2 0 36.4 0 54.6-16.4 0.2-33.4 0.8-48.5 8-6.5 3.4-13.1 8.6-15.5 15.7-0.2 48.8 0 97.6-0.1 146.4-19.7-0.1-39.4 0-59.1-0.1 0-73.4 0-146.9 0-220.4 18.3-0.2 36.7-0.1 55.1-0.1q0 12.8 0 25.6z"/>
		<path id="Layer" fill-rule="evenodd" class="s2" d="m541.9 1228.9c22.4-7.2 46.6-7.8 69.9-4.5 19.5 3.1 39.8 10.9 52.1 27.2 9.4 12.1 12.2 28 11.2 43 0.1 51-0.4 102 0.3 153q-25.9 0-51.7 0-2.6-9.6-5.1-19.1c-15.1 9.9-32.1 16.8-49.9 19.8-17.9 2.9-37 3.3-53.8-4.5-14.6-6.6-25.9-19.6-30.7-34.9-5.8-18.6-4.7-40 5.7-56.8 9.4-14.9 24.8-24.8 40.6-31.7 28-11.9 58.4-16.8 88.5-20.4-0.3-9 1.6-19.4-4.9-26.8-9.1-10.4-24.5-11.1-37.3-10-17.9 1.4-34.4 11-45.6 24.9-13.2-7.4-26.3-14.9-39.4-22.5 12.1-17.3 30-30.3 50.1-36.7zm23.6 118.5c-9.1 4-18.2 9.4-23.3 18.2-6.8 11.3-5.5 27 3.3 36.9 4.6 4.9 11.3 7.8 18.1 7.7 20.2 0.3 39-10.1 53.7-23.3-0.1-17.2 0-34.4 0-51.6-17.6 2.3-35.4 5.3-51.8 12.1z"/>
		<path id="Layer" class="s2" d="m829.5 1224.1c18.5-3.5 38.4-2.8 55.7 5 12.8 5.8 22.6 17.3 27.3 30.6 3.6 9.8 5 20.4 5.3 30.9q0 78.3 0 156.6c-19.4 0-38.8 0.1-58.1 0 0-49.1 0-98.1 0-147.2-0.4-9.7-1.4-20.3-7.9-27.9-6.6-7.2-17.3-7.7-26.3-6.7-18 2.2-33.6 12.6-47.3 23.9q0 79 0 157.9c-19.2 0-38.5 0.1-57.7 0 0-71.4-0.1-142.8 0-214.2q24.1-3.4 48.3-6.7c1.5 8.7 3.4 17.3 5.1 25.9 16.9-12.2 35-23.8 55.6-28.1z"/>
		<path id="Layer" fill-rule="evenodd" class="s2" d="m980.5 1256.2c13.6-18.7 35.1-31.9 58.4-33.7 14.9-0.8 30.3 0.5 44.2 6.2 10.6 4.3 20.5 11.6 25.6 22.2 1.4-8.2 3-16.2 4.3-24.4 16.4-0.4 32.8 0 49.1-0.1q0 109.1 0 218.2c-0.3 21.4-5 44.2-20.2 60.3-17 17.9-42.1 24.6-65.8 27-27.4 2.7-56.6 1.1-81.2-12.5-15.8-8.6-28.2-23.7-31.7-41.6q28.7-4.6 57.3-9.2c1.5 5.6 4.1 11.4 9.2 14.6 10.2 6.7 22.9 7.1 34.7 6.9 11.2 0 23.3-3.1 31-11.7 8.5-9.5 10.3-22.9 10.7-35.2-0.1-9.3 0.2-18.5-0.3-27.8-5.8 9.4-12.7 18.6-22.5 24.1-14.2 8-31.1 8.7-46.9 7.2-21.7-2.3-42.6-13-56.1-30.3-17-21.4-22.9-49.4-23.2-76.2-0.5-29.4 5.7-60 23.4-84zm70.8 8.1c-8.5 1.5-16.3 6.1-21.9 12.7-7.9 9.3-11.6 21.5-13.3 33.4-1.8 13.6-1.4 27.4-0.2 41 1.6 13.4 4.8 27.6 14.5 37.6 7.2 7.8 18.1 11.1 28.5 10.8 11.1 0.2 22.7-3.4 30.6-11.5 8.8-9 12.8-21.3 14.9-33.4 1.8-11.5 2.3-23.2 1.9-34.8-1-15.8-5.6-32.3-16.9-43.9-9.7-10.1-24.5-14.4-38.1-11.9z"/>
		<path id="Layer" fill-rule="evenodd" class="s2" d="m1222.1 1254.6c14.8-18.1 37.2-28.7 60.1-31.4 25.7-3 53.2 0 75.3 14.3 18 11.5 30.5 30.2 36.6 50.5 5.6 18.6 7.4 38.4 5.8 57.8-48.7 0-97.3 0-145.9 0 0.1 14.8 2.3 30.2 10.3 42.9 6.5 10.3 17.9 16.9 29.8 18.6 12.4 1.8 25.6 1.1 36.9-4.7 10-5 17.8-13.6 24.1-22.7q21.3 11.9 42.7 23.7c-13.1 23.2-37.2 38.6-62.9 44.2-26.2 5.6-54.4 5.7-79.5-4.5-19.6-7.7-35.8-23.2-45.2-42-12.2-24.1-14.7-51.9-12.9-78.5 1.7-24.4 8.8-49.3 24.8-68.2zm45.3 20c-8.1 9.1-11.6 21.4-12.6 33.4 29.6 0 59.1 0 88.7 0-0.3-11.8-3-24.2-11.1-33.1-9.1-10.4-23.6-14.1-37-13.1-10.4 0.6-20.9 4.9-28 12.8z"/>
	</g>
</svg>